<svg id="BG" xmlns="http://www.w3.org/2000/svg" xmlns:xlink="http://www.w3.org/1999/xlink" viewBox="0 0 250 600">
  <defs>
    <style>
      .cls-2 {clip-path: url(#clip-path);}
      .cls-4, .cls-5, .cls-6 {fill: #fff;}
      .cls-5 {opacity: 0.2;}
      .cls-6 {opacity: 0.6;}

		#Front_cloud, #Front_cloud2, #Front_cloud3{
		  animation-name: front-cloud;
		  animation-timing-function: ease-in-out;
		  animation-iteration-count: infinite;
		}
		#Front_cloud {
		  animation-duration: 20s;
		}
		#Front_cloud2 {
		  animation-duration: 30s;
		}
		#Front_cloud3 {
		  animation-duration: 10s;
		}
		
		@keyframes front-cloud{
			0%{
				transform: translateX(0) translateY(0) skewX(0 );
				}
			25%{
				transform: translateX(3px) translateY(3px) skewX(1deg);
				}
			50%{
				transform: translateX(3px) translateY(0px) skewX(0);
				}
			75%{
				transform: translateX(0) translateY(3px) skewX(1deg);
				}
			100%{
				transform: translateX(0) translateY(0) skewX(0);
				}
		}
    </style>
  </defs>
  <g class="cls-2">
    <g id="Front_cloud3">
      <path class="cls-5" d="M266.28,237.85a7.14,7.14,0,0,0,.8,0,8.17,8.17,0,0,0,0-16.33,7.86,7.86,0,0,0-1.3.11,11.93,11.93,0,0,0,1.08-5A11.56,11.56,0,0,0,255.44,205a11.36,11.36,0,0,0-9.81,5.72,7.86,7.86,0,0,0-6.36-3.28,7.75,7.75,0,0,0-4.3,1.3,12.26,12.26,0,0,0,.22-2.29,11.56,11.56,0,0,0-11.42-11.71,11.18,11.18,0,0,0-3.93.71c0-.12,0-.24,0-.36a11.42,11.42,0,1,0-22.84,0,12.48,12.48,0,0,0,.08,1.38,7.8,7.8,0,0,0-4.5-1.43,8.07,8.07,0,0,0-8,8.17,8.6,8.6,0,0,0,.12,1.36,11.21,11.21,0,0,0-6.32-2A11.56,11.56,0,0,0,167,213.88a11,11,0,0,0-3.6-.6,11.24,11.24,0,0,0-6.89,2.37,8,8,0,0,0-7.69-6.09,7.84,7.84,0,0,0-5.86,2.65c0-.16,0-.31,0-.47a8.07,8.07,0,0,0-8-8.17,7.83,7.83,0,0,0-5,1.85,11.4,11.4,0,0,0-22.59,2.48c0,.25,0,.51,0,.76a7.63,7.63,0,0,0-2.4-.38,7.77,7.77,0,0,0-4.91,1.74,7.87,7.87,0,0,0,0-.84,8.07,8.07,0,0,0-8-8.17,7.72,7.72,0,0,0-4.32,1.31,11.86,11.86,0,0,0,.27-2.55,11.56,11.56,0,0,0-11.42-11.71,11.37,11.37,0,0,0-10.07,6.2,7.93,7.93,0,0,0-15.72.89,7.75,7.75,0,0,0-3.79-1,7.88,7.88,0,0,0-6.4,3.32,7.9,7.9,0,0,0-6.41-3.32,7.68,7.68,0,0,0-3.78,1,7.94,7.94,0,0,0-15.73-.89,11.37,11.37,0,0,0-10.07-6.2A11.56,11.56,0,0,0-6.65,199.77a11.86,11.86,0,0,0,.27,2.55A7.72,7.72,0,0,0-10.7,201a8.07,8.07,0,0,0-8,8.17c0,.28,0,.56,0,.84a7.77,7.77,0,0,0-4.91-1.74,7.68,7.68,0,0,0-2.4.38c0-.25,0-.51,0-.76a11.57,11.57,0,0,0-11.42-11.72,11.51,11.51,0,0,0-11.17,9.24,7.81,7.81,0,0,0-5-1.85,8.07,8.07,0,0,0-8,8.17c0,.16,0,.31,0,.47a7.82,7.82,0,0,0-5.86-2.65A8,8,0,0,0-75,215.65a11.24,11.24,0,0,0-6.89-2.37,11,11,0,0,0-3.59.6,11.57,11.57,0,0,0-11.41-11.29,11.24,11.24,0,0,0-6.33,2,8.6,8.6,0,0,0,.12-1.36,8.07,8.07,0,0,0-8-8.17,7.8,7.8,0,0,0-4.5,1.43,12.48,12.48,0,0,0,.08-1.38,11.57,11.57,0,0,0-11.42-11.72,11.57,11.57,0,0,0-11.42,11.72c0,.12,0,.24,0,.36a11.14,11.14,0,0,0-3.93-.71,11.57,11.57,0,0,0-11.42,11.71,12.26,12.26,0,0,0,.22,2.29,7.75,7.75,0,0,0-4.3-1.3,7.86,7.86,0,0,0-6.36,3.28,11.34,11.34,0,0,0-9.81-5.72,11.56,11.56,0,0,0-11.42,11.71,11.93,11.93,0,0,0,1.08,5,7.86,7.86,0,0,0-1.3-.11,8.06,8.06,0,0,0-8,8.16,8.07,8.07,0,0,0,8,8.17,7,7,0,0,0,.8,0l-9.71,36.51H276Z"/>
      <path class="cls-5" d="M-63.83,541.54c-.26,0-.52,0-.79,0a8.07,8.07,0,0,0-8,8.17,8.07,8.07,0,0,0,8,8.17,8,8,0,0,0,1.3-.12,12,12,0,0,0-1.08,5A11.57,11.57,0,0,0-53,574.42a11.36,11.36,0,0,0,9.81-5.72A7.85,7.85,0,0,0-36.81,572a7.75,7.75,0,0,0,4.3-1.3,12.24,12.24,0,0,0-.22,2.28,11.57,11.57,0,0,0,11.42,11.72,11.18,11.18,0,0,0,3.93-.71c0,.12,0,.24,0,.36A11.56,11.56,0,0,0-6,596,11.56,11.56,0,0,0,5.45,584.33a12.81,12.81,0,0,0-.08-1.39,7.69,7.69,0,0,0,4.49,1.43,8.07,8.07,0,0,0,8-8.16,8.83,8.83,0,0,0-.12-1.37,11.13,11.13,0,0,0,6.32,2,11.55,11.55,0,0,0,11.41-11.28,11,11,0,0,0,3.59.6,11.22,11.22,0,0,0,6.9-2.38,8,8,0,0,0,7.69,6.1,7.87,7.87,0,0,0,5.86-2.65c0,.15,0,.31,0,.46a8.07,8.07,0,0,0,8,8.17,7.77,7.77,0,0,0,5-1.85A11.39,11.39,0,0,0,95,571.5c0-.25,0-.51,0-.76a7.63,7.63,0,0,0,2.4.38,7.77,7.77,0,0,0,4.91-1.74,7.63,7.63,0,0,0,0,.84,8.07,8.07,0,0,0,8,8.17,7.85,7.85,0,0,0,4.32-1.31,11.86,11.86,0,0,0-.28,2.55,11.57,11.57,0,0,0,11.42,11.71,11.37,11.37,0,0,0,10.08-6.2,7.93,7.93,0,0,0,15.72-.89,7.82,7.82,0,0,0,10.19-2.35,7.82,7.82,0,0,0,10.19,2.35,7.93,7.93,0,0,0,15.72.89,11.4,11.4,0,0,0,10.08,6.2,11.56,11.56,0,0,0,11.42-11.71,12.53,12.53,0,0,0-.27-2.55,7.8,7.8,0,0,0,4.31,1.31,8.07,8.07,0,0,0,8-8.17,7.58,7.58,0,0,0-.05-.84,7.82,7.82,0,0,0,4.91,1.74,7.7,7.7,0,0,0,2.41-.38c0,.25,0,.51,0,.76A11.39,11.39,0,0,0,250.94,574a7.8,7.8,0,0,0,5.05,1.85,8.06,8.06,0,0,0,8-8.17c0-.15,0-.31,0-.46a7.84,7.84,0,0,0,5.85,2.65,8,8,0,0,0,7.7-6.1,11.17,11.17,0,0,0,6.89,2.38,11,11,0,0,0,3.59-.6,11.56,11.56,0,0,0,11.41,11.28,11.16,11.16,0,0,0,6.33-2,8.83,8.83,0,0,0-.12,1.37,8.06,8.06,0,0,0,8,8.16,7.73,7.73,0,0,0,4.5-1.43,12.81,12.81,0,0,0-.08,1.39,11.42,11.42,0,1,0,22.84,0c0-.12,0-.24,0-.36a11.14,11.14,0,0,0,3.93.71A11.58,11.58,0,0,0,356.14,573a12.24,12.24,0,0,0-.22-2.28,7.75,7.75,0,0,0,4.29,1.3,7.87,7.87,0,0,0,6.37-3.28,11.34,11.34,0,0,0,9.81,5.72,11.58,11.58,0,0,0,11.42-11.72,11.85,11.85,0,0,0-1.09-5A8.15,8.15,0,1,0,388,541.5c-.26,0-.53,0-.79,0l9.71-36.5H-73.53Z"/>
    </g>
    <g id="Front_cloud2">
      <path class="cls-6" d="M311,231.12l-.27,0a10.5,10.5,0,0,0-5.52,1.38,13.7,13.7,0,0,0-9.45-6.84,8.77,8.77,0,0,0-1.14-.1c-4.19-.11-8.09,2.38-9.39,5.89a12.28,12.28,0,0,0-1.43-.65,14.53,14.53,0,0,0-17.17-8.1,14.53,14.53,0,0,0-27.76-7.7,9.47,9.47,0,0,0-5.74-4,9.67,9.67,0,0,0-2.92-.23A14.53,14.53,0,1,0,202.81,201a13.85,13.85,0,0,0-2.92-2.1h0c-.22-.12-.45-.22-.68-.33l-.26-.13-.55-.22c-.18-.07-.36-.15-.55-.21l-.36-.12-.73-.22-.29-.07c-.27-.06-.54-.13-.82-.18l-.3,0-.81-.11-.4,0c-.23,0-.47,0-.7,0h-1.11c-.23,0-.47,0-.7,0l-.41,0-.8.11-.3,0c-.28.05-.55.12-.82.18l-.29.07-.73.22-.37.12-.54.21-.55.22-.26.13-.69.33h0A14.05,14.05,0,0,0,183,201a14.53,14.53,0,0,0-27.39,9.72,9.63,9.63,0,0,0-2.91.23,9.5,9.5,0,0,0-5.75,4,14.53,14.53,0,0,0-27.76,7.7,14.51,14.51,0,0,0-17.16,8.1,12.28,12.28,0,0,0-1.43.65c-1.3-3.51-5.2-6-9.39-5.89a8.77,8.77,0,0,0-1.14.1,13.74,13.74,0,0,0-9.46,6.84,10.46,10.46,0,0,0-5.51-1.38l-.28,0c-5.46.28-9.69,4.62-9.43,9.66A8.93,8.93,0,0,0,69,247.41a3.8,3.8,0,0,0,1.57,1,9.91,9.91,0,0,0,2.63.87c-.16,2.62,1.83,5.43,4.94,6.87a9.42,9.42,0,0,0,4.23.91,5.62,5.62,0,0,0,5.09-2.78,11.14,11.14,0,0,0,3.07,2L74,273.66H311.73L295.24,256.2a11,11,0,0,0,3.07-2,5.65,5.65,0,0,0,5.1,2.78,9.38,9.38,0,0,0,4.22-.91c3.12-1.44,5.11-4.25,4.94-6.87a10,10,0,0,0,2.64-.87,3.7,3.7,0,0,0,1.56-1,8.86,8.86,0,0,0,3.64-6.63C320.68,235.74,316.45,231.4,311,231.12Z"/>
      <path class="cls-6" d="M-63.06,548.28h.27a10.31,10.31,0,0,0,5.52-1.38,13.72,13.72,0,0,0,9.46,6.85,10.5,10.5,0,0,0,1.14.1A9.77,9.77,0,0,0-37.28,548a9.72,9.72,0,0,0,1.43.64,14.49,14.49,0,0,0,9.92,8.24,14.52,14.52,0,0,0,7.24-.13,14.52,14.52,0,0,0,11,16.15,14.53,14.53,0,0,0,16.73-8.46,9.45,9.45,0,0,0,5.74,4.06,9.35,9.35,0,0,0,2.92.22,14.53,14.53,0,0,0,23.33,15.74,14.39,14.39,0,0,0,4-6A13.7,13.7,0,0,0,48,580.51h0l.68.34L49,581l.54.23.55.21.36.11.74.23.28.06.82.19.3,0q.41.08.81.12c.13,0,.27,0,.4,0l.71,0h1.1l.71,0c.13,0,.27,0,.4,0s.54-.07.81-.12l.3,0,.82-.19.28-.06.73-.23.37-.11.54-.21.55-.23.26-.12.69-.34h0A14,14,0,0,0,65,578.42a14.53,14.53,0,1,0,27.38-9.73,9.31,9.31,0,0,0,2.91-.22,9.44,9.44,0,0,0,5.75-4.06,14.53,14.53,0,0,0,27.76-7.69,14.54,14.54,0,0,0,17.16-8.11,10.76,10.76,0,0,0,1.43-.64,9.77,9.77,0,0,0,9.39,5.89,10.73,10.73,0,0,0,1.14-.1,13.76,13.76,0,0,0,9.46-6.85,10.28,10.28,0,0,0,5.51,1.38h.28c5.46-.28,9.69-4.62,9.43-9.66a8.88,8.88,0,0,0-3.64-6.63,3.86,3.86,0,0,0-1.57-1,10.69,10.69,0,0,0-2.63-.87c.17-2.61-1.82-5.42-4.94-6.87a9.7,9.7,0,0,0-4.23-.91,5.67,5.67,0,0,0-5.09,2.78,11.11,11.11,0,0,0-3.07-2l16.48-17.46H-63.8l16.48,17.46a11,11,0,0,0-3.07,2,5.67,5.67,0,0,0-5.09-2.78,9.7,9.7,0,0,0-4.23.91c-3.12,1.45-5.11,4.26-4.94,6.87a10.76,10.76,0,0,0-2.64.87,3.9,3.9,0,0,0-1.56,1,8.85,8.85,0,0,0-3.64,6.63C-72.75,543.66-68.52,548-63.06,548.28Z"/>
    </g>
    <path id="Front_cloud" class="cls-4" d="M409.93,247.68c-3.64,0-6.61,1.53-8,4.1a20.16,20.16,0,0,0-13.56-5.18h-.45a23.88,23.88,0,0,0-3.73.29,14.6,14.6,0,0,0-3.92-4.76,6,6,0,0,0-2.39-1.55,16.25,16.25,0,0,0-4.06-1.46c.37-4.05-2.61-8.51-7.39-10.88a14.85,14.85,0,0,0-6.53-1.59c-3.63,0-6.61,1.53-8,4.11a20.16,20.16,0,0,0-13.57-5.19h-1.22a20.14,20.14,0,0,0-13.57,5.19c-1.42-2.58-4.39-4.11-8-4.11a14.85,14.85,0,0,0-6.53,1.59c-4.78,2.37-7.75,6.83-7.38,10.88a16.25,16.25,0,0,0-4.06,1.46,6,6,0,0,0-2.39,1.55,14.51,14.51,0,0,0-3.93,4.76,23.66,23.66,0,0,0-3.72-.29H287a20.2,20.2,0,0,0-13.57,5.18c-1.41-2.57-4.39-4.1-8-4.1a14.85,14.85,0,0,0-6.53,1.59c-4.78,2.37-7.76,6.83-7.39,10.88a16.25,16.25,0,0,0-4.06,1.46,6,6,0,0,0-2.39,1.55l0,0a9.6,9.6,0,0,0-4-1,8.49,8.49,0,0,0-2.86.37,1.24,1.24,0,0,0,0-.16,7.84,7.84,0,0,0-.18-1.88c-1-4.38-5.49-7.46-11.27-7.66a18.12,18.12,0,0,0-8.59,1.86,12.84,12.84,0,0,0,.15-6.9,12.29,12.29,0,0,0-11.55-8.92,10.43,10.43,0,0,0-1.38.09l0-.51a10.22,10.22,0,0,0,.25-2.39c-.14-7.22-7.75-12.87-17.33-12.87h-.44A20.45,20.45,0,0,0,175,227.72a20.42,20.42,0,0,0-12.8-4.51h-.45c-9.58,0-17.19,5.65-17.32,12.87a10.21,10.21,0,0,0,.24,2.39c0,.17,0,.34,0,.51a10.66,10.66,0,0,0-1.38-.09,12.31,12.31,0,0,0-11.56,8.92,12.84,12.84,0,0,0,.16,6.9,18.12,18.12,0,0,0-8.6-1.86c-5.78.2-10.31,3.28-11.26,7.66a7.85,7.85,0,0,0-.19,1.88.75.75,0,0,1,0,.16,8.46,8.46,0,0,0-2.86-.37,9.64,9.64,0,0,0-4,1l0,0a6,6,0,0,0-2.39-1.55,16,16,0,0,0-4.05-1.46c.37-4-2.61-8.51-7.39-10.88a14.85,14.85,0,0,0-6.53-1.59c-3.64,0-6.61,1.53-8,4.1A20.16,20.16,0,0,0,63,246.6H62.5a23.88,23.88,0,0,0-3.73.29,14.35,14.35,0,0,0-3.92-4.76,6,6,0,0,0-2.39-1.55,16.25,16.25,0,0,0-4.06-1.46c.37-4.05-2.61-8.51-7.39-10.88a14.85,14.85,0,0,0-6.53-1.59c-3.63,0-6.61,1.53-8,4.11a20.16,20.16,0,0,0-13.57-5.19H11.67A20.14,20.14,0,0,0-1.9,230.76c-1.42-2.58-4.39-4.11-8-4.11a14.86,14.86,0,0,0-6.54,1.59c-4.78,2.37-7.75,6.83-7.38,10.88a16.25,16.25,0,0,0-4.06,1.46,6,6,0,0,0-2.39,1.55,14.51,14.51,0,0,0-3.93,4.76,23.66,23.66,0,0,0-3.72-.29h-.45A20.2,20.2,0,0,0-52,251.78c-1.41-2.57-4.39-4.1-8-4.1a14.77,14.77,0,0,0-6.18,1.42l-125,281.2a14.77,14.77,0,0,0,6.18,1.42c3.63,0,6.61-1.53,8-4.11a20.08,20.08,0,0,0,13.57,5.18h.45a22.6,22.6,0,0,0,3.72-.3,14.31,14.31,0,0,0,3.93,4.76,5.77,5.77,0,0,0,2.39,1.55,15.82,15.82,0,0,0,4.05,1.47c-.37,4.05,2.61,8.51,7.39,10.88a14.85,14.85,0,0,0,6.53,1.59c3.64,0,6.61-1.53,8-4.11a20.08,20.08,0,0,0,13.57,5.18h1.22a20.06,20.06,0,0,0,13.56-5.18c1.42,2.58,4.4,4.11,8,4.11A14.85,14.85,0,0,0-84,551.16c4.78-2.37,7.76-6.83,7.39-10.88a15.68,15.68,0,0,0,4-1.47,5.71,5.71,0,0,0,2.39-1.55,14.31,14.31,0,0,0,3.93-4.76,22.63,22.63,0,0,0,3.73.3h.44a20.08,20.08,0,0,0,13.57-5.18c1.42,2.58,4.39,4.11,8,4.11a14.85,14.85,0,0,0,6.53-1.59c4.78-2.37,7.76-6.83,7.38-10.88a15.89,15.89,0,0,0,4.06-1.47,5.77,5.77,0,0,0,2.39-1.55h0a9.92,9.92,0,0,0,4,1,8.22,8.22,0,0,0,2.86-.38c0,.06,0,.11,0,.16a8.33,8.33,0,0,0,.18,1.88c1,4.39,5.49,7.47,11.27,7.67a18.31,18.31,0,0,0,4.46-.41,18.6,18.6,0,0,0,4.14-1.45,12.81,12.81,0,0,0-.16,6.89,12.32,12.32,0,0,0,11.56,8.93,10.66,10.66,0,0,0,1.38-.09c0,.16,0,.33,0,.51a10.22,10.22,0,0,0-.25,2.39c.14,7.22,7.75,12.87,17.33,12.87h.45A20.5,20.5,0,0,0,50,551.68a20.5,20.5,0,0,0,12.8,4.51h.45c9.58,0,17.19-5.65,17.33-12.87a10.22,10.22,0,0,0-.25-2.39l0-.51a10.43,10.43,0,0,0,1.38.09,12.32,12.32,0,0,0,11.55-8.93,12.71,12.71,0,0,0-.16-6.89,18.78,18.78,0,0,0,4.14,1.45,18.31,18.31,0,0,0,4.46.41c5.78-.2,10.31-3.28,11.27-7.67a8.33,8.33,0,0,0,.18-1.88s0-.1,0-.16a8.22,8.22,0,0,0,2.86.38,9.92,9.92,0,0,0,4-1h0a5.84,5.84,0,0,0,2.39,1.55,15.89,15.89,0,0,0,4.06,1.47c-.37,4,2.6,8.51,7.38,10.88a14.85,14.85,0,0,0,6.53,1.59c3.64,0,6.61-1.53,8-4.11A20.08,20.08,0,0,0,162,532.79h.45a22.6,22.6,0,0,0,3.72-.3,14.31,14.31,0,0,0,3.93,4.76,5.77,5.77,0,0,0,2.39,1.55,15.68,15.68,0,0,0,4,1.47c-.37,4.05,2.61,8.51,7.39,10.88a14.85,14.85,0,0,0,6.53,1.59c3.64,0,6.61-1.53,8-4.11a20.06,20.06,0,0,0,13.56,5.18h1.23a20.06,20.06,0,0,0,13.56-5.18c1.42,2.58,4.39,4.11,8,4.11a14.85,14.85,0,0,0,6.53-1.59c4.78-2.37,7.76-6.83,7.39-10.88a15.68,15.68,0,0,0,4.05-1.47,5.77,5.77,0,0,0,2.39-1.55,14.31,14.31,0,0,0,3.93-4.76,22.6,22.6,0,0,0,3.72.3h.45a20.08,20.08,0,0,0,13.57-5.18c1.42,2.58,4.39,4.11,8,4.11a14.73,14.73,0,0,0,6.17-1.42l125-281.2A14.7,14.7,0,0,0,409.93,247.68Z"/>
  </g>
</svg>
