<?xml version="1.0" encoding="utf-8"?>
<!-- Generator: Adobe Illustrator 26.3.1, SVG Export Plug-In . SVG Version: 6.00 Build 0)  -->
<svg version="1.1" id="Calque_1" xmlns="http://www.w3.org/2000/svg" xmlns:xlink="http://www.w3.org/1999/xlink" x="0px" y="0px"
	 viewBox="0 0 1046 1046" style="enable-background:new 0 0 1046 1046;" xml:space="preserve">
<style type="text/css">
	.st0{fill:#FFFFFF;}
	.st1{fill:#E42313;}
	.st2{fill:none;}
	.st3{fill:#EE413A;}
	.st4{fill:#24B7C3;}
	.st5{fill:#934292;}
	.st6{fill:#F6A02E;}
	.st7{fill:#EE783B;}
	.st8{fill:#7ABB5C;}
	.st9{fill:#6B4090;}
</style>
<circle class="st0" cx="523" cy="523" r="523"/>
<g>
	<g>
		<path class="st1" d="M451.9,786l27.4-74.9c0,0,1.1-4.6,4.5-4.6c3.6,0,4.5,4.6,4.5,4.6l27.5,74.9h19.9l-34.5-93
			c-2.1-5.6-9.1-10-17.4-10c-8.3,0-15.3,4.3-17.4,10L432,786H451.9z"/>
		<path class="st1" d="M231.4,683l-27.5,74.9c0,0-1.1,4.6-4.5,4.6c-3.6,0-4.5-4.6-4.5-4.6L167.5,683h-19.9l34.5,93
			c2.1,5.6,9.1,10,17.4,10c8.3,0,15.3-4.3,17.5-10l34.4-93H231.4z"/>
		<path class="st1" d="M781.8,734.3c0,31.1-24.5,54.5-54.8,54.5c-30.2,0-54.8-23.4-54.8-54.5c0-29.9,24.8-54.5,54.8-54.5
			C757,679.8,781.8,704.4,781.8,734.3z M764.2,734.3c0-20.5-15.3-37.8-37.3-37.8c-21.9,0-37.3,17.2-37.3,37.8
			c0,21.3,17.1,37.8,37.3,37.8C747.2,772.1,764.2,755.6,764.2,734.3z"/>
		<path class="st1" d="M357.1,734.3c0,31.1-24.6,54.5-54.8,54.5s-54.8-23.4-54.8-54.5c0-29.9,24.8-54.5,54.8-54.5
			C332.2,679.8,357.1,704.4,357.1,734.3z M339.5,734.3c0-20.5-15.4-37.8-37.3-37.8c-21.9,0-37.3,17.2-37.3,37.8
			c0,21.3,17.1,37.8,37.3,37.8C322.4,772.1,339.5,755.6,339.5,734.3z"/>
		<path class="st1" d="M422.3,772.1c-20.2,0-37.3-16.5-37.3-37.8c0-20.5,15.3-37.8,37.3-37.8l0.1-16.7c-29.9,0-54.8,24.5-54.8,54.5
			c0,31.1,24.5,54.5,54.8,54.5L422.3,772.1z"/>
		<path class="st1" d="M663.3,772.1c-20.2,0-37.3-16.5-37.3-37.8c0-20.5,15.3-37.8,37.3-37.8l0.1-16.7c-30,0-54.8,24.5-54.8,54.5
			c0,31.1,24.6,54.5,54.8,54.5L663.3,772.1z"/>
		<path class="st1" d="M563.7,762.8c0,5.2,1.5,6.6,7.4,6.6h32.1V786c0,0-40.6,0-44.5,0c-6.1,0-8.2-0.7-10.4-3.2
			c-1.8-2.1-2.1-4.5-2.1-9.7V683h17.5V762.8z"/>
		<path class="st1" d="M888.1,683.2c-9.3,0-19.6,8.1-26.4,11.7c-6.7,3.6-10.9,6.2-15.5,6.2c-4.6,0-8.8-2.6-15.5-6.2
			c-6.7-3.6-17.1-11.7-26.4-11.7c-10.9,0-10.4,10.5-10.4,19c0,8.4,0,83.5,0,83.5h18.6v-72.6c0-5.9,1.6-7.7,10.8-2
			c0,0,16.1,9.3,22.8,9.3c6.7,0,22.8-9.3,22.8-9.3c9.3-5.7,10.9-3.8,10.9,2v72.6h18.6c0,0,0-75.1,0-83.5
			C898.4,693.8,898.9,683.2,888.1,683.2z"/>
	</g>
	<g>
		<path class="st2" d="M506.7,401.5c-7.4,17.7-16.1,34.9-28.5,49.9c-16.2,19.6-26.9,22.4-52.4,11.7c-17.3-5.7-34.1-16.6-49.6-29.8
			c-11.6-10-15.1-22.4-10.4-36.3c8-23.3,19.4-44.9,36.8-63c9.9-10.3,22-12.6,34.4-8.2c21.7,7.8,42.4,18.1,59.7,34.1
			C509.9,372,513.6,385.2,506.7,401.5z"/>
		<path class="st2" d="M543.7,525.7c0.6-32.6,3.8-65.2,13.4-96.5c5.7-18.4,18.1-21.7,34-10.9c26,17.6,50.3,37.3,71.9,60.2
			c14,14.9,12.6,27.8-5.8,36.7c-27.7,13.4-57.2,22.3-84.8,28.9C552.3,546.6,543.5,541.5,543.7,525.7z"/>
		<path class="st2" d="M542.5,260.5c18.5-31.1,61.2-42.9,92.1-25.4c33.9,19.2,46.7,62.4,28,94c-20.1,33.9-59.3,43.6-94.3,23.4
			c-8.3-4.8-15.2-10.8-20.7-17.7c-0.2-0.2-0.4-0.5-0.5-0.7C530.7,313.1,528.1,284.6,542.5,260.5z"/>
		<path class="st1" d="M484.4,286.4c-11.1-5.5-22.7-10-35-13.3c-32.8-8.9-62.2-0.7-85.8,23.8c-22,22.7-37.3,49.9-46.9,75.4
			c-14.3,42.2-4.2,78.2,26.4,104c22.3,18.8,47.5,32.5,74.7,42.3c28.1,10.1,55.8,6.6,78.6-10.9c1.6-27,6-53.8,12.8-80
			c4.1-15.8,11.3-28.7,20.6-38.4C497.3,363.9,480.7,326.5,484.4,286.4z M496.8,359.9c13.1,12.1,16.8,25.3,10,41.6
			c-7.4,17.7-16.1,34.9-28.5,49.9c-16.2,19.6-26.9,22.4-52.4,11.7c-17.3-5.7-34.1-16.6-49.6-29.8c-11.6-10-15.1-22.4-10.4-36.3
			c8-23.3,19.4-44.9,36.8-63c9.9-10.3,22-12.6,34.4-8.2"/>
		<path class="st3" d="M547.5,334.7c-0.2-0.2-0.4-0.5-0.5-0.7C547.2,334.3,547.4,334.5,547.5,334.7z"/>
		<path class="st4" d="M563,370.2c-1.9-13-7.3-24.9-15.5-35.5c5.5,6.9,12.4,12.9,20.7,17.7c35,20.3,74.2,10.6,94.3-23.4
			c18.8-31.7,5.9-74.8-28-94c-30.9-17.5-73.6-5.7-92.1,25.4c-14.3,24.1-11.7,52.6,4.5,73.6c-2.9-3.7-6.1-7.1-9.7-10.5
			c-16-14.9-33.6-27.6-52.9-37.2c1.5-16.1,6.2-32.7,14.5-49.2c27.7-54.6,107.1-76.5,161.9-46.6c54.8,29.9,75.9,107.4,44.6,163.3
			c-12.5,22.3-33,39.4-56.4,49.5c-7.1-5.8-14.2-11.5-21.5-17C606.2,370.6,583.3,365.7,563,370.2z"/>
		<path class="st5" d="M537.3,323.6c3.6,3.3,6.8,6.8,9.7,10.5c0.2,0.2,0.4,0.5,0.5,0.7c8.2,10.6,13.6,22.5,15.5,35.5
			c-12.5,2.8-24,9.3-33.3,19.1c-32.4-25.4-49-62.8-45.3-102.9C503.7,296,521.3,308.7,537.3,323.6z"/>
		<path class="st6" d="M582.4,593c31.6-7.1,62.1-17.3,91.7-30.2c29.8-12.9,47.9-42.5,44.5-77.7c-1.8-15.8-12.3-32-27.2-45.2
			c-14-12.3-28-24.6-42.4-36.4c-27.9,12-60.1,14.1-88.5,3.5c-8.7,39.2-29.9,72.2-61,98.2c-1,0.9-2.1,1.7-3.1,2.5
			c-0.3,5.1-0.5,10.3-0.6,15.5C495,569.3,537.4,603.1,582.4,593z M543.7,525.7c0.6-32.6,3.8-65.2,13.4-96.5
			c5.7-18.4,18.1-21.7,34-10.9c26,17.6,50.3,37.3,71.9,60.2c14,14.9,12.6,27.8-5.8,36.7c-27.7,13.4-57.2,22.3-84.8,28.9
			C552.3,546.6,543.5,541.5,543.7,525.7z"/>
		<path class="st7" d="M529.8,389.3c4.3,3.4,8.9,6.6,13.8,9.5c5.4,3.3,11.1,6,16.9,8.2c-8.7,39.2-29.9,72.2-61,98.2
			c-1,0.9-2.1,1.7-3.1,2.5c1.6-27,6-53.8,12.8-80C513.3,412,520.5,399,529.8,389.3z"/>
		<path class="st8" d="M560.5,407c1.1-4.8,1.9-9.6,2.6-14.6c1.1-7.7,1-15.1-0.1-22.2c20.2-4.6,43.2,0.3,64.4,16.3
			c7.3,5.5,14.4,11.2,21.5,17C621.1,415.5,588.9,417.6,560.5,407z"/>
		<path class="st9" d="M543.6,398.9c-4.9-3-9.5-6.1-13.8-9.5c9.3-9.8,20.8-16.2,33.3-19.1c1.1,7.1,1.1,14.5,0.1,22.2
			c-0.7,4.9-1.6,9.8-2.6,14.6C554.7,404.9,549,402.2,543.6,398.9z"/>
	</g>
</g>
</svg>
